####
#
# OBJ File Generated by Meshlab
#
####
# Object cylinder_y_9.obj
#
# Vertices: 60
# Faces: 116
#
####
vn 3.056102 2.932145 0.649604
v 0.489074 4.500000 0.103955
vn 3.056102 -2.932145 0.649604
v 0.489074 -4.500000 0.103955
vn 3.124383 -2.932155 0.000000
v 0.500000 -4.500000 0.000000
vn -3.124383 2.932154 0.000000
v -0.500000 4.500000 0.000000
vn -0.326578 2.932159 3.107267
v -0.052264 4.500000 0.497260
vn 2.854261 2.932160 1.270810
v 0.456772 4.500000 0.203368
vn 2.854260 -2.932160 1.270810
v 0.456772 -4.500000 0.203368
vn 3.124378 2.932155 0.000000
v 0.500000 4.500000 0.000000
vn -3.124378 -2.932154 -0.000000
v -0.500000 -4.500000 0.000000
vn -3.056102 2.932145 0.649604
v -0.489074 4.500000 0.103955
vn 1.562192 2.932155 2.705792
v 0.250000 4.500000 0.433012
vn -0.326578 -2.932159 -3.107266
v -0.052264 -4.500000 -0.497260
vn 0.326578 2.932158 -3.107266
v 0.052264 4.500000 -0.497260
vn -2.090621 2.932150 -2.321864
v -0.334565 4.500000 -0.371572
vn -0.326578 -2.932159 3.107266
v -0.052264 -4.500000 0.497260
vn 0.326578 2.932158 3.107266
v 0.052264 4.500000 0.497260
vn 2.527680 2.932156 1.836461
v 0.404508 4.500000 0.293892
vn -2.090614 -2.932144 2.321869
v -0.334565 -4.500000 0.371572
vn -2.090614 2.932144 2.321870
v -0.334565 4.500000 0.371572
vn -0.965486 2.932142 2.971461
v -0.154508 4.500000 0.475528
vn -0.326578 2.932159 -3.107267
v -0.052264 4.500000 -0.497260
vn 2.527680 2.932156 -1.836461
v 0.404508 4.500000 -0.293892
vn 1.562192 -2.932155 -2.705792
v 0.250000 -4.500000 -0.433012
vn 2.527680 -2.932156 -1.836461
v 0.404508 -4.500000 -0.293892
vn 2.090621 2.932150 -2.321864
v 0.334565 4.500000 -0.371572
vn 1.562192 -2.932155 2.705792
v 0.250000 -4.500000 0.433012
vn 2.090621 2.932150 2.321864
v 0.334565 4.500000 0.371572
vn 0.965481 -2.932146 2.971463
v 0.154508 -4.500000 0.475528
vn 0.965481 2.932146 2.971463
v 0.154508 4.500000 0.475528
vn -1.562191 2.932165 2.705795
v -0.249999 4.500000 0.433012
vn -2.854260 2.932161 1.270810
v -0.456772 4.500000 0.203368
vn -2.527680 2.932155 1.836461
v -0.404508 4.500000 0.293892
vn -2.854261 -2.932161 1.270810
v -0.456772 -4.500000 0.203368
vn -0.965487 -2.932142 2.971461
v -0.154508 -4.500000 0.475528
vn 3.056102 -2.932145 -0.649604
v 0.489074 -4.500000 -0.103955
vn 3.056102 2.932145 -0.649604
v 0.489074 4.500000 -0.103955
vn -2.090621 -2.932150 -2.321864
v -0.334565 -4.500000 -0.371572
vn -2.854260 2.932161 -1.270810
v -0.456772 4.500000 -0.203368
vn 1.562192 2.932155 -2.705792
v 0.250000 4.500000 -0.433012
vn 2.854261 2.932160 -1.270810
v 0.456772 4.500000 -0.203368
vn 2.527680 -2.932156 1.836461
v 0.404508 -4.500000 0.293892
vn 2.090621 -2.932150 2.321864
v 0.334565 -4.500000 0.371572
vn 0.326578 -2.932158 3.107267
v 0.052264 -4.500000 0.497260
vn -2.527680 -2.932155 1.836461
v -0.404508 -4.500000 0.293892
vn -3.056102 -2.932145 0.649604
v -0.489074 -4.500000 0.103955
vn -1.562191 -2.932165 2.705795
v -0.249999 -4.500000 0.433012
vn -1.562192 -2.932156 -2.705792
v -0.250000 -4.500000 -0.433012
vn -2.854261 -2.932161 -1.270810
v -0.456772 -4.500000 -0.203368
vn -2.527680 -2.932155 -1.836461
v -0.404508 -4.500000 -0.293892
vn -3.056102 2.932145 -0.649604
v -0.489074 4.500000 -0.103955
vn 0.965481 -2.932146 -2.971463
v 0.154508 -4.500000 -0.475528
vn 0.326578 -2.932158 -3.107267
v 0.052264 -4.500000 -0.497260
vn 0.965481 2.932146 -2.971463
v 0.154508 4.500000 -0.475528
vn 2.090621 -2.932150 -2.321864
v 0.334565 -4.500000 -0.371572
vn 2.854260 -2.932160 -1.270810
v 0.456772 -4.500000 -0.203368
vn -0.965481 2.932146 -2.971463
v -0.154508 4.500000 -0.475528
vn -3.056102 -2.932145 -0.649604
v -0.489074 -4.500000 -0.103955
vn -2.527680 2.932155 -1.836461
v -0.404508 4.500000 -0.293892
vn -1.562192 2.932156 -2.705792
v -0.250000 4.500000 -0.433012
vn -0.965481 -2.932146 -2.971463
v -0.154508 -4.500000 -0.475528
# 60 vertices, 0 vertices normals

f 2//2 3//3 8//8
f 1//1 2//2 8//8
f 7//7 2//2 1//1
f 6//6 7//7 1//1
f 10//10 31//31 4//4
f 4//4 31//31 32//32
f 4//4 32//32 19//19
f 4//4 19//19 30//30
f 4//4 30//30 20//20
f 4//4 20//20 5//5
f 4//4 5//5 16//16
f 4//4 16//16 29//29
f 4//4 29//29 11//11
f 4//4 11//11 27//27
f 4//4 27//27 17//17
f 4//4 17//17 6//6
f 4//4 6//6 1//1
f 4//4 1//1 8//8
f 4//4 8//8 36//36
f 4//4 36//36 40//40
f 4//4 40//40 22//22
f 4//4 22//22 25//25
f 4//4 25//25 39//39
f 4//4 39//39 53//53
f 4//4 53//53 13//13
f 4//4 13//13 21//21
f 4//4 21//21 56//56
f 4//4 56//56 59//59
f 4//4 59//59 14//14
f 4//4 14//14 58//58
f 4//4 58//58 38//38
f 4//4 38//38 50//50
f 9//9 57//57 48//48
f 37//37 9//9 49//49
f 49//49 9//9 48//48
f 47//47 9//9 37//37
f 60//60 9//9 47//47
f 12//12 9//9 60//60
f 52//52 9//9 12//12
f 51//51 9//9 52//52
f 23//23 9//9 51//51
f 54//54 9//9 23//23
f 24//24 9//9 54//54
f 55//55 9//9 24//24
f 35//35 9//9 55//55
f 3//3 9//9 35//35
f 2//2 9//9 3//3
f 7//7 9//9 2//2
f 41//41 9//9 7//7
f 42//42 9//9 41//41
f 26//26 9//9 42//42
f 28//28 9//9 26//26
f 43//43 9//9 28//28
f 15//15 9//9 43//43
f 34//34 9//9 15//15
f 46//46 9//9 34//34
f 18//18 9//9 46//46
f 44//44 9//9 18//18
f 33//33 9//9 44//44
f 45//45 9//9 33//33
f 35//35 36//36 8//8
f 3//3 35//35 8//8
f 41//41 7//7 6//6
f 17//17 41//41 6//6
f 4//4 50//50 9//9
f 9//9 50//50 57//57
f 45//45 10//10 9//9
f 9//9 10//10 4//4
f 50//50 38//38 57//57
f 57//57 38//38 48//48
f 38//38 58//58 48//48
f 48//48 58//58 49//49
f 58//58 14//14 49//49
f 49//49 14//14 37//37
f 14//14 59//59 37//37
f 37//37 59//59 47//47
f 59//59 56//56 47//47
f 47//47 56//56 60//60
f 56//56 21//21 60//60
f 60//60 21//21 12//12
f 21//21 13//13 12//12
f 12//12 13//13 52//52
f 13//13 53//53 52//52
f 52//52 53//53 51//51
f 53//53 39//39 51//51
f 51//51 39//39 23//23
f 39//39 25//25 23//23
f 23//23 25//25 54//54
f 54//54 25//25 22//22
f 24//24 54//54 22//22
f 24//24 22//22 40//40
f 55//55 24//24 40//40
f 55//55 40//40 36//36
f 35//35 55//55 36//36
f 42//42 41//41 17//17
f 27//27 42//42 17//17
f 26//26 42//42 27//27
f 11//11 26//26 27//27
f 28//28 26//26 11//11
f 29//29 28//28 11//11
f 43//43 28//28 29//29
f 16//16 43//43 29//29
f 15//15 43//43 16//16
f 5//5 15//15 16//16
f 34//34 15//15 5//5
f 20//20 34//34 5//5
f 46//46 34//34 20//20
f 30//30 46//46 20//20
f 18//18 46//46 30//30
f 19//19 18//18 30//30
f 18//18 19//19 44//44
f 44//44 19//19 32//32
f 44//44 32//32 33//33
f 33//33 32//32 31//31
f 33//33 31//31 45//45
f 45//45 31//31 10//10
# 116 faces, 0 coords texture

# End of File
